<svg xmlns="http://www.w3.org/2000/svg" viewBox="0 0 400 500" width="100%" height="100%">
  <defs>
    <linearGradient id="bg_HAD" x1="0%" y1="0%" x2="100%" y2="100%">
      <stop offset="0%" stop-color="#0f172a"/>
      <stop offset="100%" stop-color="#020617"/>
    </linearGradient>
    <radialGradient id="glow_HAD" cx="50%" cy="35%" r="65%">
      <stop offset="0%" stop-color="#60a5fa" stop-opacity="0.3"/>
      <stop offset="100%" stop-color="#60a5fa" stop-opacity="0"/>
    </radialGradient>
  </defs>
  <rect width="400" height="500" fill="url(#bg_HAD)"/>
  <rect width="400" height="500" fill="url(#glow_HAD)"/>
  <rect x="0" y="0" width="400" height="6" fill="#60a5fa"/>
  <!-- Helmet Graphic -->
  <g transform="translate(130, 100)" fill="none" stroke="#60a5fa" stroke-width="3.5" stroke-linecap="round" stroke-linejoin="round">
    <path d="M70 20 C30 20 15 50 15 85 C15 130 35 160 70 160 C105 160 125 130 125 85 C125 50 110 20 70 20 Z" fill="#1e293b" fill-opacity="0.7"/>
    <path d="M28 80 Q70 100 112 80 L108 108 Q70 122 32 108 Z" fill="#60a5fa" fill-opacity="0.25" stroke="#60a5fa" stroke-width="2.5"/>
    <circle cx="70" cy="90" r="6" fill="#60a5fa" opacity="0.6"/>
  </g>
  <!-- Driver Info Text -->
  <text x="200" y="315" text-anchor="middle" fill="#ffffff" font-family="system-ui, -apple-system, sans-serif" font-size="24" font-weight="bold">I. Hadjar</text>
  <text x="200" y="365" text-anchor="middle" fill="#60a5fa" font-family="monospace" font-size="44" font-weight="900" letter-spacing="4">HAD</text>
  <text x="200" y="410" text-anchor="middle" fill="#94a3b8" font-family="system-ui, sans-serif" font-size="18" font-weight="bold">#17  🇫🇷</text>
  <rect x="150" y="435" width="100" height="3" rx="1.5" fill="#60a5fa" opacity="0.8"/>
</svg>